<svg width="22" height="22" viewBox="0 0 22 22" fill="none" xmlns="http://www.w3.org/2000/svg">
<circle cx="11" cy="11" r="10.5" stroke="white"/>
<path d="M8.87979 14.4417L8.8798 14.4416L8.87745 14.4392L5.545 11.0054C5.54497 11.0054 5.54493 11.0054 5.54489 11.0053C5.51308 10.9724 5.49882 10.932 5.50008 10.8936C5.50134 10.8551 5.51836 10.815 5.55304 10.7834C5.58827 10.7514 5.63842 10.7318 5.69291 10.7335C5.74736 10.7352 5.79553 10.7577 5.82796 10.7912L5.82799 10.7912L8.65329 13.7073L9.01713 14.0828L9.37602 13.7025L15.1432 7.59151L15.1542 7.57982L15.1645 7.56745C15.1792 7.54965 15.1985 7.53394 15.2216 7.52209C15.2447 7.51022 15.2709 7.50272 15.2983 7.50061C15.3258 7.4985 15.3532 7.50189 15.3787 7.5103C15.4042 7.5187 15.4266 7.53173 15.4448 7.54776C15.4631 7.56375 15.4767 7.58228 15.4858 7.60166C15.4949 7.62099 15.4996 7.64123 15.5 7.66128C15.5004 7.68131 15.4966 7.70161 15.4884 7.72109C15.4802 7.74062 15.4674 7.75945 15.4501 7.77595L15.4402 7.78534L15.4308 7.79526L9.16304 14.4377L9.16303 14.4376L9.16085 14.44C9.14461 14.4574 9.1239 14.4724 9.0995 14.4831L9.29284 14.9246L9.09949 14.4831C9.07568 14.4935 9.04934 14.4994 9.02219 14.5H9.02026C8.9927 14.4998 8.96587 14.4942 8.94155 14.4839C8.9171 14.4735 8.89625 14.4588 8.87979 14.4417Z" stroke="white"/>
</svg>
